<svg width="16" height="16" viewBox="0 0 16 16" fill="none" xmlns="http://www.w3.org/2000/svg">
<g clip-path="url(#clip0_2091_6392)">
<path d="M8 16C6.41775 16 4.87103 15.5308 3.55544 14.6518C2.23985 13.7727 1.21447 12.5233 0.608967 11.0615C0.00346629 9.59966 -0.15496 7.99113 0.153721 6.43928C0.462403 4.88743 1.22433 3.46197 2.34315 2.34315C3.46197 1.22433 4.88743 0.462403 6.43928 0.153721C7.99113 -0.15496 9.59966 0.00346629 11.0615 0.608967C12.5233 1.21447 13.7727 2.23985 14.6518 3.55544C15.5308 4.87103 16 6.41775 16 8C15.9977 10.121 15.1541 12.1545 13.6543 13.6543C12.1545 15.1541 10.121 15.9977 8 16V16ZM8 2C6.81332 2 5.65328 2.3519 4.66658 3.01119C3.67989 3.67047 2.91085 4.60755 2.45673 5.7039C2.0026 6.80026 1.88378 8.00666 2.11529 9.17055C2.3468 10.3344 2.91825 11.4035 3.75736 12.2426C4.59648 13.0818 5.66558 13.6532 6.82946 13.8847C7.99335 14.1162 9.19975 13.9974 10.2961 13.5433C11.3925 13.0892 12.3295 12.3201 12.9888 11.3334C13.6481 10.3467 14 9.18669 14 8C13.9982 6.40925 13.3655 4.88415 12.2407 3.75931C11.1159 2.63448 9.59076 2.00177 8 2V2Z" fill="#D0D0D0"/>
<path d="M6.99851 9.43586C6.98865 8.92165 7.1167 8.41419 7.36936 7.96622C7.62201 7.51825 7.99003 7.14612 8.43518 6.88853C8.57598 6.8116 8.69391 6.69879 8.77702 6.56155C8.86012 6.4243 8.90544 6.26751 8.90836 6.1071C8.91128 5.94668 8.87171 5.78835 8.79365 5.64817C8.7156 5.50799 8.60185 5.39096 8.46394 5.30895C8.32604 5.22695 8.16889 5.18289 8.00846 5.18125C7.84802 5.17962 7.69001 5.22046 7.55046 5.29963C7.41091 5.3788 7.29479 5.49348 7.2139 5.63204C7.133 5.77059 7.0902 5.92809 7.08984 6.08853H5.08984C5.08977 5.66256 5.18324 5.24177 5.36365 4.85589C5.54405 4.47001 5.80699 4.12845 6.13389 3.85535C6.46079 3.58224 6.84368 3.38425 7.25549 3.27537C7.66731 3.16648 8.09801 3.14935 8.51718 3.2252C9.10926 3.332 9.65368 3.61974 10.0754 4.04879C10.4972 4.47784 10.7756 5.0271 10.8723 5.62093C10.9689 6.21475 10.8791 6.82394 10.6152 7.3646C10.3512 7.90526 9.92616 8.3508 9.39851 8.63986C9.26835 8.72628 9.163 8.84517 9.09285 8.98477C9.0227 9.12437 8.99018 9.27985 8.99851 9.43586H6.99851Z" fill="#D0D0D0"/>
<path d="M9.04297 10.6631H7.04297V12.6631H9.04297V10.6631Z" fill="#D0D0D0"/>
</g>
<defs>
<clipPath id="clip0_2091_6392">
<rect width="16" height="16" fill="white"/>
</clipPath>
</defs>
</svg>
